<?xml version="1.0" encoding="iso-8859-1"?>
<!-- Generator: Adobe Illustrator 27.2.0, SVG Export Plug-In . SVG Version: 6.00 Build 0)  -->
<svg version="1.1" baseProfile="basic" xmlns="http://www.w3.org/2000/svg" xmlns:xlink="http://www.w3.org/1999/xlink" x="0px"
	 y="0px" viewBox="0 0 50 50" xml:space="preserve">
<g id="Layer_2" fill="#ff7f50">
</g>
<g id="Layer_1" fill="#ff7f50">
</g>
<g id="&#x421;&#x43B;&#x43E;&#x439;_1" >
	<g>
		<g fill="#ff7f50">
			<path d="M14,3.99c-5.511,0-10,4.489-10,10v22c0,5.511,4.489,10,10,10h22c5.511,0,10-4.489,10-10v-22c0-5.511-4.489-10-10-10H14z
				 M14,5.99h22c4.431,0,8,3.569,8,8v22c0,4.431-3.569,8-8,8H14c-4.431,0-8-3.569-8-8v-22C6,9.56,9.569,5.99,14,5.99z"/>
		</g>
	</g>
	<g fill="#ff7f50">
		<path d="M14.5,34c-0.157,0-0.317-0.024-0.475-0.077c-0.786-0.262-1.21-1.111-0.948-1.897l5-15c0.261-0.785,1.11-1.212,1.897-0.948
			c0.786,0.262,1.21,1.111,0.948,1.897l-5,15C15.714,33.603,15.128,34,14.5,34z"/>
	</g>
	<g fill="#ff7f50">
		<path d="M22.5,34c-0.157,0-0.317-0.024-0.475-0.077c-0.786-0.262-1.21-1.111-0.948-1.897l5-15c0.261-0.785,1.11-1.212,1.897-0.948
			c0.786,0.262,1.21,1.111,0.948,1.897l-5,15C23.714,33.603,23.128,34,22.5,34z"/>
	</g>
	<g fill="#ff7f50">
		<path d="M30.5,34c-0.157,0-0.317-0.024-0.475-0.077c-0.786-0.262-1.21-1.111-0.948-1.897l5-15c0.262-0.785,1.11-1.212,1.897-0.948
			c0.786,0.262,1.21,1.111,0.948,1.897l-5,15C31.714,33.603,31.128,34,30.5,34z"/>
	</g>
</g>
<g id="&#x421;&#x43B;&#x43E;&#x439;_4" fill="#ff7f50">
</g>
<g id="Layer_6" fill="#ff7f50">
</g>
</svg>